<svg width="47" height="43" viewBox="0 0 47 43" fill="none" xmlns="http://www.w3.org/2000/svg">
<path d="M46.2717 9.79818C47.0243 10.862 47.1936 12.0658 46.7797 13.4095L39.0184 38.7728C38.661 39.9672 37.9413 40.9704 36.8594 41.7822C35.7775 42.5941 34.6251 43 33.4021 43H7.35262C5.90385 43 4.50683 42.5008 3.16155 41.5023C1.81627 40.5038 0.88022 39.2767 0.353397 37.821C-0.0981658 36.5705 -0.116981 35.3854 0.296952 34.2656C0.296952 34.191 0.325174 33.939 0.38162 33.5098C0.438065 33.0805 0.475695 32.7352 0.49451 32.474C0.513325 32.3247 0.485103 32.124 0.409842 31.8721C0.334582 31.6201 0.306359 31.4382 0.325174 31.3262C0.362804 31.1209 0.438065 30.9249 0.550956 30.7383C0.663846 30.5516 0.819071 30.3324 1.01663 30.0804C1.21419 29.8284 1.36941 29.6092 1.4823 29.4225C1.91505 28.7133 2.33839 27.8595 2.75232 26.861C3.16626 25.8625 3.44848 25.0087 3.599 24.2995C3.65545 24.1128 3.66015 23.8329 3.61311 23.4596C3.56608 23.0864 3.56137 22.8251 3.599 22.6758C3.65545 22.4705 3.81538 22.2092 4.07879 21.8919C4.3422 21.5747 4.50213 21.36 4.55857 21.248C4.95369 20.5762 5.34881 19.7177 5.74393 18.6725C6.13904 17.6274 6.37423 16.7875 6.44949 16.153C6.46831 15.985 6.44479 15.6864 6.37894 15.2572C6.31308 14.8279 6.31779 14.5666 6.39305 14.4733C6.46831 14.2307 6.67527 13.9461 7.01395 13.6195C7.35262 13.2929 7.55958 13.0829 7.63484 12.9896C7.99233 12.5043 8.39215 11.7158 8.83431 10.624C9.27646 9.53223 9.53517 8.63173 9.61043 7.92253C9.62925 7.77322 9.60102 7.53526 9.52576 7.20866C9.4505 6.88205 9.43169 6.63477 9.46932 6.4668C9.50695 6.31749 9.59162 6.14952 9.72332 5.96289C9.85503 5.77626 10.0244 5.56163 10.2313 5.31901C10.4383 5.07639 10.5982 4.88043 10.7111 4.73112C10.8616 4.50716 11.0169 4.22255 11.1768 3.87728C11.3367 3.53201 11.4778 3.2054 11.6001 2.89746C11.7224 2.58952 11.8729 2.25358 12.0517 1.88965C12.2304 1.52572 12.4139 1.22711 12.602 0.993815C12.7902 0.760525 13.0395 0.541233 13.3499 0.335938C13.6604 0.130642 13.9991 0.023329 14.3659 0.0139974C14.7328 0.0046658 15.1797 0.0559896 15.7065 0.167969L15.6783 0.251953C16.3933 0.0839844 16.8731 0 17.1177 0H38.5951C39.9874 0 41.0599 0.522569 41.8125 1.56771C42.5651 2.61285 42.7344 3.82595 42.3205 5.20703L34.5875 30.5703C33.9101 32.7912 33.2375 34.2236 32.5696 34.8675C31.9016 35.5114 30.6928 35.8333 28.943 35.8333H4.41746C3.90945 35.8333 3.55197 35.9733 3.345 36.2533C3.13803 36.5519 3.12863 36.9531 3.31678 37.457C3.76834 38.7635 5.12303 39.4167 7.38084 39.4167H33.4304C33.976 39.4167 34.5028 39.272 35.0108 38.9827C35.5188 38.6935 35.8481 38.3062 35.9986 37.821L44.4654 10.1901C44.5971 9.77951 44.6442 9.24761 44.6065 8.5944C45.3215 8.87435 45.8766 9.27561 46.2717 9.79818ZM16.2428 9.85417C16.1675 10.0968 16.1863 10.3067 16.2992 10.484C16.4121 10.6613 16.6002 10.75 16.8637 10.75H34.023C34.2676 10.75 34.5075 10.6613 34.7427 10.484C34.9779 10.3067 35.1331 10.0968 35.2084 9.85417L35.8011 8.0625C35.8763 7.81988 35.8575 7.60992 35.7446 7.43262C35.6317 7.25532 35.4436 7.16667 35.1802 7.16667H18.0208C17.7762 7.16667 17.5363 7.25532 17.3011 7.43262C17.0659 7.60992 16.9107 7.81988 16.8354 8.0625L16.2428 9.85417ZM13.9003 17.0208C13.825 17.2635 13.8438 17.4734 13.9567 17.6507C14.0696 17.828 14.2578 17.9167 14.5212 17.9167H31.6806C31.9252 17.9167 32.165 17.828 32.4002 17.6507C32.6354 17.4734 32.7906 17.2635 32.8659 17.0208L33.4586 15.2292C33.5338 14.9865 33.515 14.7766 33.4021 14.5993C33.2892 14.422 33.1011 14.3333 32.8377 14.3333H15.6783C15.4337 14.3333 15.1938 14.422 14.9586 14.5993C14.7234 14.7766 14.5682 14.9865 14.493 15.2292L13.9003 17.0208Z" fill="#D8D8D8"/>
</svg>
