<svg width="31" height="38" viewBox="0 0 31 38" fill="none" xmlns="http://www.w3.org/2000/svg">
<path d="M15.5 16.8889C17.2518 16.8889 18.9642 16.3936 20.4208 15.4657C21.8773 14.5379 23.0126 13.219 23.6829 11.676C24.3533 10.133 24.5287 8.43508 24.187 6.79702C23.8452 5.15896 23.0016 3.6543 21.7629 2.47332C20.5243 1.29235 18.9461 0.488092 17.2279 0.162261C15.5098 -0.163569 13.7289 0.00365882 12.1105 0.642799C10.4921 1.28194 9.10879 2.36428 8.13556 3.75297C7.16232 5.14165 6.64286 6.77429 6.64286 8.44445C6.64286 10.6841 7.57602 12.8319 9.23705 14.4156C10.8981 15.9992 13.1509 16.8889 15.5 16.8889ZM28.7857 38C29.373 38 29.9362 37.7776 30.3515 37.3817C30.7667 36.9858 31 36.4488 31 35.8889C31 31.9696 29.367 28.2108 26.4602 25.4394C23.5533 22.6681 19.6109 21.1111 15.5 21.1111C11.3891 21.1111 7.44666 22.6681 4.53984 25.4394C1.63303 28.2108 6.12565e-08 31.9696 0 35.8889C0 36.4488 0.233291 36.9858 0.64855 37.3817C1.06381 37.7776 1.62702 38 2.21429 38H28.7857Z" fill="#D8D8D8"/>
</svg>
