<svg width="56" height="41" viewBox="0 0 56 41" fill="none" xmlns="http://www.w3.org/2000/svg">
<path fill-rule="evenodd" clip-rule="evenodd" d="M27.7865 26.3104C20.6616 23.1291 13.5371 19.9478 6.41222 16.7664C6.38382 21.0946 6.4194 25.3573 6.39101 29.6851C6.90386 29.6851 7.35274 29.6851 7.86593 29.7068C7.83754 32.3152 7.8088 34.902 7.7804 37.51C6.89668 38.4559 5.94932 39.4231 5.06593 40.3686C4.06828 39.3945 3.13495 38.4628 2.13729 37.4884C2.13729 34.8517 2.13729 32.2151 2.13729 29.5781C2.62209 29.5781 3.10621 29.5781 3.59066 29.5781C3.59066 24.8495 3.59066 20.1201 3.59066 15.3912C2.39389 14.6741 1.19677 13.9578 0 13.241C9.31896 8.82725 18.6383 4.4138 27.9572 0C37.3049 4.47126 46.6526 8.94217 56 13.4134C46.5955 17.7123 37.191 22.0115 27.7865 26.3104ZM9.79726 34.2227C17.667 31.9914 23.321 36.9182 26.586 41H29.529C33.0307 36.8353 38.8144 31.5957 46.0115 34.8858C45.9827 31.3033 45.9543 23.2313 45.926 19.6488C39.2575 22.8015 34.5912 24.6561 27.9223 27.8088C21.8806 24.8856 15.839 22.5438 9.79692 19.6205C9.79726 23.0885 9.79726 30.7548 9.79726 34.2227Z" fill="#D8D8D8"/>
</svg>
